<svg xmlns="http://www.w3.org/2000/svg" width="32" height="32" style=""><rect id="backgroundrect" width="100%" height="100%" x="0" y="0" fill="none" stroke="none"/>
 <title/>

 <g style="">
  <title>background</title>
  <rect fill="none" id="canvas_background" height="402" width="582" y="-1" x="-1"/>
 </g>
 <g style="" class="currentLayer">
  <title>Layer 1</title>
  <path fill="#ffa500" id="Triangle 29" d="m14.42423,6.14839c0.87007,-1.40766 2.2828,-1.40431 3.15079,0l10.78509,17.44899c1.16153,1.87922 0.31544,3.40262 -1.8887,3.40262l-20.94356,0c-2.20463,0 -3.05399,-1.51734 -1.88871,-3.40262l10.78509,-17.44899zm1.57577,13.85161c0.55228,0 1,-0.45304 1,-0.99703l0,-6.00594c0,-0.55064 -0.44386,-0.99703 -1,-0.99703c-0.55228,0 -1,0.45304 -1,0.99703l0,6.00594c0,0.55064 0.44386,0.99703 1,0.99703zm0,4c0.55228,0 1,-0.44772 1,-1c0,-0.55228 -0.44772,-1 -1,-1c-0.55228,0 -1,0.44772 -1,1c0,0.55228 0.44772,1 1,1zm0,0" class="selected" fill-opacity="1"/>
 </g>
</svg>